HIERARCHY
ROOT Pelvis
{
	OFFSET 0.000000 0.000000 0.000000
	CHANNELS 6 Xposition Yposition Zposition Xrotation Yrotation Zrotation
	JOINT LeftUpLeg_virtual
	{
		OFFSET 0.000000 0.000000 0.000000
		CHANNELS 3 Xrotation Yrotation Zrotation
		JOINT LeftUpLeg
		{
			OFFSET 18.735201 -5.666702 -4.541200
			CHANNELS 3 Xrotation Yrotation Zrotation
			JOINT LeftLeg
			{
				OFFSET -0.021200 -31.938179 0.493100
				CHANNELS 3 Xrotation Yrotation Zrotation
				JOINT LeftFoot
				{
					OFFSET 0.021200 -31.938179 -4.336299
					CHANNELS 3 Xrotation Yrotation Zrotation
					JOINT LeftToeBase
					{
						OFFSET 0.943001 -26.722000 15.023500
						CHANNELS 3 Xrotation Yrotation Zrotation
						End Site
						{
							OFFSET 0 0 0
						}
					}
				}
			}
		}
	}
	JOINT RightUpLeg_virtual
	{
		OFFSET 0.000000 0.000000 0.000000
		CHANNELS 3 Xrotation Yrotation Zrotation
		JOINT RightUpLeg
		{
			OFFSET -18.735201 -5.666702 -4.541200
			CHANNELS 3 Xrotation Yrotation Zrotation
			JOINT RightLeg
			{
				OFFSET 0.018946 -31.938133 0.493100
				CHANNELS 3 Xrotation Yrotation Zrotation
				JOINT RightFoot
				{
					OFFSET -0.018946 -31.938126 -4.336299
					CHANNELS 3 Xrotation Yrotation Zrotation
					JOINT RightToeBase
					{
						OFFSET -0.943001 -26.722004 15.023500
						CHANNELS 3 Xrotation Yrotation Zrotation
						End Site
						{
							OFFSET 0 0 0
						}
					}
				}
			}
		}
	}
	JOINT Hips_virtual
	{
		OFFSET 0.000000 0.000000 0.000000
		CHANNELS 3 Xrotation Yrotation Zrotation
		JOINT Hips
		{
			OFFSET -0.000000 -0.000000 -0.000000
			CHANNELS 3 Xrotation Yrotation Zrotation
			JOINT Spine
			{
				OFFSET 0.000000 10.199997 -0.299500
				CHANNELS 3 Xrotation Yrotation Zrotation
				JOINT Spine1
				{
					OFFSET 0.000000 11.900002 -1.516600
					CHANNELS 3 Xrotation Yrotation Zrotation
					JOINT Spine2
					{
						OFFSET 0.000000 13.600006 -2.842500
						CHANNELS 3 Xrotation Yrotation Zrotation
						JOINT Neck_virtual
						{
							OFFSET 0.000000 0.000000 0.000000
							CHANNELS 3 Xrotation Yrotation Zrotation
							JOINT Neck
							{
								OFFSET 0.000000 9.624100 -2.890100
								CHANNELS 3 Xrotation Yrotation Zrotation
								JOINT Head
								{
									OFFSET 0.000000 14.068802 -1.351900
									CHANNELS 3 Xrotation Yrotation Zrotation
									End Site
									{
										OFFSET 0 0 0
									}
								}
							}
						}
						JOINT LeftShoulder_virtual
						{
							OFFSET 0.000000 0.000000 0.000000
							CHANNELS 3 Xrotation Yrotation Zrotation
							JOINT LeftShoulder
							{
								OFFSET 15.263000 10.923401 -0.547700
								CHANNELS 3 Xrotation Yrotation Zrotation
								JOINT LeftArm
								{
									OFFSET 25.438599 -2.830597 -13.032500
									CHANNELS 3 Xrotation Yrotation Zrotation
									JOINT LeftForeArm
									{
										OFFSET 29.960503 0.000000 0.000000
										CHANNELS 3 Xrotation Yrotation Zrotation
										JOINT LeftHand
										{
											OFFSET 27.849251 0.000000 0.000000
											CHANNELS 3 Xrotation Yrotation Zrotation
											End Site
											{
												OFFSET 0 0 0
											}
										}
									}
								}
							}
						}
						JOINT RightShoulder_virtual
						{
							OFFSET 0.000000 0.000000 0.000000
							CHANNELS 3 Xrotation Yrotation Zrotation
							JOINT RightShoulder
							{
								OFFSET -15.263000 10.923401 -0.547700
								CHANNELS 3 Xrotation Yrotation Zrotation
								JOINT RightArm
								{
									OFFSET -25.438599 -2.830597 -13.032500
									CHANNELS 3 Xrotation Yrotation Zrotation
									JOINT RightForeArm
									{
										OFFSET -29.960503 0.000000 0.000000
										CHANNELS 3 Xrotation Yrotation Zrotation
										JOINT RightHand
										{
											OFFSET -27.849251 0.000000 0.000000
											CHANNELS 3 Xrotation Yrotation Zrotation
											End Site
											{
												OFFSET 0 0 0
											}
										}
									}
								}
							}
						}
					}
				}
			}
		}
	}
}
MOTION
Frames: 10
Frame Time: 0.03333333
-4.476355 78.172531 4.457935 0.000000 0.000000 0.000000 -5.788535 -24.667257 3.714442 -54.055367 0.499647 22.298239 51.126083 -8.340608 -2.083167 -2.494053 -7.641978 -14.586742 0.000000 0.000000 0.000000 9.920662 -34.522897 -1.531592 -22.133286 -14.142927 -23.038151 47.148748 6.446317 0.826803 -11.410146 1.310212 17.658609 0.000000 0.000000 0.000000 1.935683 -20.167778 1.388596 3.332644 -35.469220 5.886192 11.051499 5.525421 -3.801640 5.159753 3.761892 -2.706306 0.000000 0.000000 0.000000 -0.464332 5.205658 -2.246534 -2.136247 2.506978 -0.397445 0.000000 0.000000 0.000000 -2.661240 3.705292 -3.165479 -3.769334 -2.267658 -9.388066 -29.994424 12.812174 -47.560212 -11.173584 -27.535079 -8.025851 0.000000 0.000000 0.000000 -3.433318 5.225934 -1.447459 -5.434377 21.095779 1.058219 -24.361651 -14.295327 48.482383 -11.900239 28.847707 14.105538 0.000000 0.000000 0.000000 
-3.023706 77.843079 4.341717 0.000000 0.000000 0.000000 -7.643133 -24.680825 3.057766 -55.733251 0.244755 21.849659 52.217162 -9.567382 -2.383172 -1.322367 -8.909465 -16.165593 0.000000 0.000000 0.000000 10.376239 -33.292398 -2.436352 -20.624345 -13.918194 -23.593329 48.032004 7.011520 0.677045 -10.928313 1.926858 17.863270 0.000000 0.000000 0.000000 -0.178350 -19.578227 -0.290876 6.583692 -34.139157 6.428040 11.481697 5.453337 -4.408630 5.608368 3.982975 -2.839440 0.000000 0.000000 0.000000 -0.428920 5.370880 -2.529714 -2.163915 2.679333 -0.291599 0.000000 0.000000 0.000000 -3.132573 3.769120 -3.225577 -3.513990 -2.344237 -8.067986 -32.124920 13.689498 -47.212190 -10.912246 -27.183647 -7.772794 0.000000 0.000000 0.000000 -4.097841 5.777431 -2.011536 -5.083828 22.057871 -0.024783 -21.716832 -16.464318 47.399894 -12.008634 26.588753 14.635598 0.000000 0.000000 0.000000 
-2.775133 78.487465 3.149321 0.000000 0.000000 0.000000 -7.991408 -24.212450 3.307144 -56.190054 0.147875 22.134500 52.839822 -9.325347 -2.513009 -0.312773 -8.759475 -16.314231 0.000000 0.000000 0.000000 10.737244 -30.904837 -1.956556 -20.027602 -13.431941 -22.761663 46.852133 7.771090 0.664689 -11.742334 2.524138 18.233740 0.000000 0.000000 0.000000 1.847897 -19.545370 1.459353 4.423554 -34.712565 6.675741 12.630065 5.484664 -4.713527 5.510252 4.145682 -2.647322 0.000000 0.000000 0.000000 0.195267 5.566539 -2.531627 -2.245313 2.731597 -0.413962 0.000000 0.000000 0.000000 -3.403411 4.449754 -2.581493 -3.884912 -3.132586 -6.120776 -32.617046 14.379543 -48.056651 -10.963881 -24.518718 -8.161527 0.000000 0.000000 0.000000 -4.597148 6.371254 -2.019506 -5.071493 23.658510 -0.340260 -18.712031 -13.962567 50.412615 -11.486193 24.241692 14.804855 0.000000 0.000000 0.000000 
-3.599272 78.229149 4.127024 0.000000 0.000000 0.000000 -8.975860 -24.236424 3.130626 -57.218151 -0.064439 22.111966 52.607671 -8.430198 -2.271802 -0.060585 -8.051914 -15.299168 0.000000 0.000000 0.000000 10.924959 -30.058481 -1.947126 -19.654778 -13.254236 -22.594729 47.271650 8.097517 1.144747 -11.630189 2.508171 19.136375 0.000000 0.000000 0.000000 0.467380 -19.602399 0.299671 5.590863 -37.174356 4.404424 11.574246 5.287390 -3.928947 6.083559 4.351411 -3.004316 0.000000 0.000000 0.000000 0.346449 5.694686 -2.628081 -2.026421 2.922947 -0.438115 0.000000 0.000000 0.000000 -3.111601 4.436140 -2.609699 -4.027040 -2.374130 -4.086480 -33.465594 13.439101 -48.822182 -11.382701 -26.335650 -8.857146 0.000000 0.000000 0.000000 -4.498606 6.826697 -2.165565 -5.554208 23.505411 0.479548 -16.963521 -17.080824 50.413599 -10.935799 23.605812 15.493198 0.000000 0.000000 0.000000 
-3.795643 78.029968 2.639524 0.000000 0.000000 0.000000 -9.215168 -25.521897 2.890055 -57.305041 -0.354641 21.838741 52.419673 -8.192104 -2.832597 -0.180983 -7.501435 -15.966324 0.000000 0.000000 0.000000 10.527882 -29.023632 -2.592771 -20.017644 -12.796426 -22.994074 48.150631 8.400230 0.855936 -11.352382 2.900979 18.985636 0.000000 0.000000 0.000000 1.871234 -18.935953 0.564909 2.748436 -39.343034 5.766276 12.519528 5.680817 -4.417988 6.080863 4.274300 -2.803947 0.000000 0.000000 0.000000 0.662708 5.587203 -2.764923 -2.115107 2.894017 -0.428539 0.000000 0.000000 0.000000 -3.245370 4.426036 -2.666028 -3.974196 -2.135598 -3.598891 -30.054181 12.055053 -49.677236 -9.977285 -25.826287 -9.097476 0.000000 0.000000 0.000000 -4.901541 6.900592 -1.957263 -5.394272 24.319039 0.480348 -17.347371 -17.131778 48.383684 -11.102000 24.818602 15.599727 0.000000 0.000000 0.000000 
-3.771649 77.523232 2.712059 0.000000 0.000000 0.000000 -8.452514 -27.579827 4.020040 -57.068389 -1.152916 22.797915 52.595093 -7.948458 -2.864358 -0.050816 -7.223521 -15.845812 0.000000 0.000000 0.000000 10.455622 -27.363423 -2.987916 -19.823425 -12.282614 -23.059135 47.737661 8.096091 0.933682 -11.446747 2.627094 18.810211 0.000000 0.000000 0.000000 0.054582 -23.496187 0.603687 5.511026 -34.517338 3.448285 10.990381 5.425718 -4.051835 6.244068 4.462248 -2.823166 0.000000 0.000000 0.000000 0.393679 5.840210 -2.844143 -1.790716 2.850205 -0.467237 0.000000 0.000000 0.000000 -3.545844 4.789311 -2.710614 -3.807360 -2.233351 -2.318736 -29.123083 14.106089 -49.334572 -9.100727 -23.612970 -8.962087 0.000000 0.000000 0.000000 -5.064853 7.169249 -1.834788 -5.729196 24.895847 0.835178 -18.405931 -14.288985 48.211153 -9.260797 23.131829 15.148659 0.000000 0.000000 0.000000 
-3.896082 77.324944 1.536747 0.000000 0.000000 0.000000 -9.436104 -30.284902 3.942659 -58.110266 -2.105707 22.744344 53.007476 -7.503072 -2.903246 0.323751 -6.770916 -15.616949 0.000000 0.000000 0.000000 10.356265 -25.599447 -2.203849 -19.866937 -11.920833 -21.874722 49.439826 8.132587 1.065349 -10.147763 2.767581 19.172233 0.000000 0.000000 0.000000 0.777681 -22.675516 1.075917 1.969333 -35.643233 1.805014 9.934144 5.992358 -3.729936 6.067517 3.953730 -2.647697 0.000000 0.000000 0.000000 0.579905 5.887675 -2.821897 -1.772235 2.730697 -0.480409 0.000000 0.000000 0.000000 -3.321380 5.126155 -2.593558 -3.478180 -2.881269 -0.985796 -26.108921 13.923772 -49.743322 -8.033745 -23.739745 -9.353094 0.000000 0.000000 0.000000 -5.271621 7.382143 -1.769789 -5.697959 24.147020 1.186646 -17.125811 -13.273843 47.437829 -8.247184 21.943619 14.753892 0.000000 0.000000 0.000000 
-4.576101 77.677597 2.146070 0.000000 0.000000 0.000000 -8.798512 -32.200152 5.259978 -58.002076 -3.013463 23.761111 56.378652 -7.394199 -2.758414 2.561463 -6.795358 -15.489436 0.000000 0.000000 0.000000 10.852445 -25.179836 -2.461398 -19.318852 -11.892940 -22.196045 51.606310 8.246224 0.834804 -8.664174 3.217601 19.119108 0.000000 0.000000 0.000000 1.377483 -25.371084 1.088791 1.723299 -34.617745 1.494554 11.652315 6.145481 -3.235886 6.223152 4.172758 -2.751709 0.000000 0.000000 0.000000 1.242859 5.850440 -2.869005 -1.703852 2.460334 -0.308237 0.000000 0.000000 0.000000 -3.108810 5.069387 -2.758221 -3.902730 -2.237910 0.034599 -24.682369 14.945058 -50.042262 -8.331869 -24.767383 -9.442728 0.000000 0.000000 0.000000 -4.711606 7.976393 -1.962848 -6.313808 26.051926 2.024369 -20.242577 -12.896856 45.454684 -10.020501 22.674001 15.240999 0.000000 0.000000 0.000000 
-4.300425 77.792618 2.716320 0.000000 0.000000 0.000000 -9.484495 -34.058728 4.521579 -58.700394 -3.315144 23.242123 58.044860 -7.016468 -2.652019 3.580585 -6.477536 -15.098244 0.000000 0.000000 0.000000 10.976695 -23.521751 -2.159933 -19.389621 -11.506050 -21.736503 53.253756 8.599470 0.795634 -7.807724 3.603623 19.482495 0.000000 0.000000 0.000000 2.145852 -25.520283 1.956080 -0.685444 -36.248193 0.869004 12.718605 6.116980 -3.591980 6.919743 4.198721 -2.682089 0.000000 0.000000 0.000000 1.408850 5.903522 -2.841998 -1.574868 2.380156 -0.295751 0.000000 0.000000 0.000000 -2.675243 5.295365 -2.811387 -3.305710 -2.354298 0.519496 -22.607031 12.713624 -51.123628 -7.192117 -25.876751 -9.789755 0.000000 0.000000 0.000000 -4.704957 7.952576 -1.872861 -5.951559 26.412055 1.992803 -21.768218 -10.212618 44.533875 -9.855573 23.288835 14.831737 0.000000 0.000000 0.000000 
-4.286919 78.332382 1.518131 0.000000 0.000000 0.000000 -10.485270 -37.165607 3.296807 -59.483674 -3.829999 22.316204 59.653267 -6.806874 -2.529601 4.971705 -6.442310 -14.839389 0.000000 0.000000 0.000000 10.589689 -23.958678 -2.990714 -19.886574 -11.384604 -22.625773 53.678057 8.895452 0.799271 -7.467611 3.915897 19.760014 0.000000 0.000000 0.000000 3.077130 -24.689561 2.653911 1.090601 -35.853750 2.196073 13.287578 6.536759 -3.337233 7.115562 4.369283 -2.488308 0.000000 0.000000 0.000000 1.402347 5.986555 -2.709473 -1.620565 2.423076 -0.281962 0.000000 0.000000 0.000000 -2.588628 5.410057 -2.709344 -3.144640 -1.328446 0.422384 -20.113251 13.211030 -50.972674 -6.549991 -24.912289 -9.745760 0.000000 0.000000 0.000000 -4.300385 8.283877 -1.492209 -6.141075 27.610813 2.802702 -23.003809 -8.162129 43.622830 -10.078901 25.994915 14.612394 0.000000 0.000000 0.000000 
